<svg width="36" height="36" viewBox="0 0 36 36" fill="none" xmlns="http://www.w3.org/2000/svg">
<path d="M4.0007 13.33C4.0007 13.0555 3.91942 12.7872 3.76712 12.5588C3.61483 12.3305 3.39832 12.1523 3.14492 12.0468C2.89151 11.9413 2.61254 11.9132 2.34319 11.9661C2.07383 12.0189 1.82614 12.1503 1.63135 12.3437C1.43657 12.5371 1.3034 12.7838 1.24864 13.0528C1.19389 13.3217 1.21999 13.6009 1.32366 13.8551C1.42734 14.1092 1.60394 14.327 1.8312 14.4809C2.05847 14.6349 2.32622 14.7181 2.6007 14.72C2.78408 14.7213 2.96591 14.6864 3.13571 14.6171C3.3055 14.5478 3.45992 14.4457 3.59005 14.3165C3.72019 14.1873 3.82347 14.0336 3.89395 13.8643C3.96443 13.695 4.00071 13.5134 4.0007 13.33Z" fill="url(#paint0_linear_568:2759)"/>
<path d="M31.811 15.84C30.2333 16.1344 28.6959 16.6144 27.231 17.27C26.0105 17.8645 24.8459 18.5673 23.751 19.37C23.0817 18.4933 22.4958 17.5558 22.001 16.57C20.8489 14.0917 19.9121 11.5189 19.201 8.87999C19.1424 8.66183 19.0117 8.46993 18.8301 8.33556C18.6485 8.20119 18.4268 8.13226 18.201 8.13999C17.9752 8.13226 17.7535 8.20119 17.5719 8.33556C17.3903 8.46993 17.2596 8.66183 17.201 8.87999C16.4945 11.5203 15.5575 14.0935 14.401 16.57C13.9067 17.5583 13.3173 18.4961 12.641 19.37C11.5461 18.5673 10.3815 17.8645 9.16101 17.27C7.69506 16.6171 6.15803 16.1372 4.58101 15.84C4.39449 15.8032 4.20136 15.8204 4.02425 15.8895C3.84713 15.9585 3.69338 16.0767 3.58101 16.23C3.46974 16.3793 3.40237 16.5567 3.38647 16.7422C3.37057 16.9277 3.40677 17.1139 3.49101 17.28C5.60212 21.6748 7.06081 26.3541 7.82101 31.17C7.86149 31.4048 7.98446 31.6174 8.1678 31.7696C8.35113 31.9217 8.58277 32.0035 8.82101 32H27.621C27.8592 32.0035 28.0909 31.9217 28.2742 31.7696C28.4575 31.6174 28.5805 31.4048 28.621 31.17C29.3593 26.3578 30.7943 21.6787 32.881 17.28C32.9652 17.1139 33.0014 16.9277 32.9855 16.7422C32.9696 16.5567 32.9023 16.3793 32.791 16.23C32.6802 16.0801 32.5298 15.9642 32.3566 15.8953C32.1834 15.8264 31.9945 15.8072 31.811 15.84ZM26.791 30H9.64101C8.93994 25.9839 7.79977 22.057 6.24101 18.29C6.95523 18.5003 7.65365 18.7609 8.33101 19.07C9.70361 19.7371 10.9954 20.5591 12.181 21.52C12.3789 21.6887 12.6348 21.7736 12.8943 21.7568C13.1537 21.74 13.3965 21.6228 13.571 21.43C14.6245 20.2133 15.5214 18.8695 16.241 17.43C17.0062 15.8421 17.6741 14.209 18.241 12.54C18.8037 14.2106 19.4717 15.8439 20.241 17.43C20.9631 18.8657 21.8562 20.2088 22.901 21.43C23.0759 21.6257 23.3207 21.7448 23.5826 21.7617C23.8445 21.7785 24.1025 21.6917 24.301 21.52C25.4824 20.5533 26.7749 19.7308 28.151 19.07C28.827 18.7577 29.5257 18.4969 30.241 18.29C28.6606 22.0534 27.5035 25.9809 26.791 30Z" fill="url(#paint1_linear_568:2759)"/>
<path d="M33.8314 14.72C34.5991 14.72 35.2214 14.0977 35.2214 13.33C35.2214 12.5623 34.5991 11.94 33.8314 11.94C33.0637 11.94 32.4414 12.5623 32.4414 13.33C32.4414 14.0977 33.0637 14.72 33.8314 14.72Z" fill="url(#paint2_linear_568:2759)"/>
<path d="M18.2198 6.39001C18.4952 6.39199 18.7649 6.31216 18.9948 6.16063C19.2247 6.0091 19.4044 5.79272 19.5111 5.53891C19.6179 5.2851 19.6468 5.00531 19.5943 4.73502C19.5418 4.46473 19.4103 4.21612 19.2163 4.02072C19.0223 3.82533 18.7746 3.69195 18.5047 3.6375C18.2348 3.58305 17.9548 3.60998 17.7002 3.71489C17.4457 3.8198 17.228 3.99794 17.0748 4.22674C16.9216 4.45553 16.8399 4.72467 16.8398 5.00001C16.8398 5.36694 16.9849 5.71898 17.2434 5.97937C17.5019 6.23976 17.8529 6.38737 18.2198 6.39001Z" fill="url(#paint3_linear_568:2759)"/>
<path d="M18.2313 26.34C18.0109 26.338 17.7949 26.4017 17.6109 26.5229C17.4268 26.6441 17.283 26.8174 17.1977 27.0206C17.1125 27.2238 17.0897 27.4478 17.1322 27.6641C17.1747 27.8803 17.2806 28.079 17.4364 28.2349C17.5923 28.3907 17.791 28.4966 18.0072 28.5391C18.2235 28.5816 18.4475 28.5588 18.6507 28.4736C18.8539 28.3883 19.0272 28.2445 19.1484 28.0604C19.2696 27.8764 19.3333 27.6604 19.3313 27.44C19.3313 27.1483 19.2154 26.8685 19.0091 26.6622C18.8028 26.4559 18.523 26.34 18.2313 26.34Z" fill="url(#paint4_linear_568:2759)"/>
<path d="M12.5809 26.34C12.3605 26.338 12.1445 26.4017 11.9605 26.5229C11.7764 26.6441 11.6326 26.8174 11.5473 27.0206C11.4621 27.2238 11.4393 27.4478 11.4818 27.6641C11.5243 27.8803 11.6302 28.079 11.786 28.2349C11.9419 28.3907 12.1406 28.4966 12.3568 28.5391C12.5731 28.5816 12.7971 28.5588 13.0003 28.4736C13.2035 28.3883 13.3768 28.2445 13.498 28.0604C13.6192 27.8764 13.6829 27.6604 13.6809 27.44C13.6809 27.1483 13.565 26.8685 13.3587 26.6622C13.1524 26.4559 12.8726 26.34 12.5809 26.34Z" fill="url(#paint5_linear_568:2759)"/>
<path d="M23.8914 26.34C23.6711 26.338 23.4551 26.4017 23.271 26.5229C23.087 26.6441 22.9431 26.8174 22.8579 27.0206C22.7726 27.2238 22.7498 27.4478 22.7923 27.6641C22.8348 27.8803 22.9408 28.079 23.0966 28.2349C23.2524 28.3907 23.4511 28.4966 23.6674 28.5391C23.8836 28.5816 24.1076 28.5588 24.3109 28.4736C24.5141 28.3883 24.6873 28.2445 24.8085 28.0604C24.9297 27.8764 24.9934 27.6604 24.9914 27.44C24.9914 27.1483 24.8755 26.8685 24.6693 26.6622C24.463 26.4559 24.1832 26.34 23.8914 26.34Z" fill="url(#paint6_linear_568:2759)"/>
<defs>
<linearGradient id="paint0_linear_568:2759" x1="1.18717" y1="12.7323" x2="3.59988" y2="14.8188" gradientUnits="userSpaceOnUse">
<stop stop-color="#D30D0D" stop-opacity="0.3"/>
<stop offset="0.861332" stop-color="#D30D0D"/>
</linearGradient>
<linearGradient id="paint1_linear_568:2759" x1="3.02564" y1="14.9392" x2="23.901" y2="37.3389" gradientUnits="userSpaceOnUse">
<stop stop-color="#D30D0D" stop-opacity="0.3"/>
<stop offset="0.861332" stop-color="#D30D0D"/>
</linearGradient>
<linearGradient id="paint2_linear_568:2759" x1="32.4079" y1="12.7322" x2="34.8206" y2="14.8187" gradientUnits="userSpaceOnUse">
<stop stop-color="#D30D0D" stop-opacity="0.3"/>
<stop offset="0.861332" stop-color="#D30D0D"/>
</linearGradient>
<linearGradient id="paint3_linear_568:2759" x1="16.8063" y1="4.40229" x2="19.219" y2="6.48876" gradientUnits="userSpaceOnUse">
<stop stop-color="#D30D0D" stop-opacity="0.3"/>
<stop offset="0.861332" stop-color="#D30D0D"/>
</linearGradient>
<linearGradient id="paint4_linear_568:2759" x1="17.0845" y1="26.9726" x2="19.0112" y2="28.6388" gradientUnits="userSpaceOnUse">
<stop stop-color="#D30D0D" stop-opacity="0.3"/>
<stop offset="0.861332" stop-color="#D30D0D"/>
</linearGradient>
<linearGradient id="paint5_linear_568:2759" x1="11.4342" y1="26.9726" x2="13.3609" y2="28.6388" gradientUnits="userSpaceOnUse">
<stop stop-color="#D30D0D" stop-opacity="0.3"/>
<stop offset="0.861332" stop-color="#D30D0D"/>
</linearGradient>
<linearGradient id="paint6_linear_568:2759" x1="22.7447" y1="26.9726" x2="24.6714" y2="28.6388" gradientUnits="userSpaceOnUse">
<stop stop-color="#D30D0D" stop-opacity="0.3"/>
<stop offset="0.861332" stop-color="#D30D0D"/>
</linearGradient>
</defs>
</svg>
