<svg width="32" height="36" viewBox="0 0 32 36" fill="none" xmlns="http://www.w3.org/2000/svg">
<g clip-path="url(#clip0_568:2767)">
<path d="M27.3036 7.31953C27.2929 7.24396 27.2561 7.1745 27.1996 7.12315C27.1431 7.0718 27.0705 7.04178 26.9942 7.03828C26.8536 7.03828 24.3765 6.98203 24.3765 6.98203C24.3765 6.98203 22.857 5.51813 22.2938 4.95492V35.3813L31.1314 33.1875C31.1314 33.1875 27.3317 7.48828 27.3036 7.31953ZM20.2955 4.95492C20.1606 4.52907 19.991 4.11496 19.7886 3.71672C19.0545 2.30977 17.9591 1.54688 16.6639 1.54688C16.5693 1.54359 16.4747 1.55305 16.3827 1.575C16.3545 1.51875 16.2983 1.49063 16.2702 1.43438C15.7077 0.817736 14.9764 0.536486 14.1031 0.562502C12.4156 0.618752 10.7281 1.82813 9.37461 3.99586C8.41766 5.51602 7.68711 7.42992 7.48883 8.92196C5.5468 9.51258 4.19609 9.93516 4.16797 9.96328C3.18359 10.2727 3.15477 10.3008 3.04297 11.2289C2.95859 11.932 0.371094 31.7475 0.371094 31.7475L21.6462 35.4375V4.61742C21.5427 4.62132 21.4394 4.63071 21.3369 4.64555C21.3369 4.64555 20.9431 4.75805 20.2955 4.95492ZM16.4115 6.16571C15.2865 6.50321 14.0469 6.89696 12.8368 7.26328C13.1743 5.94 13.85 4.61742 14.6382 3.74766C14.9476 3.43828 15.3702 3.07196 15.8483 2.84696C16.3271 3.85735 16.4396 5.23688 16.4115 6.16571ZM14.1031 1.71844C14.4577 1.70726 14.8084 1.79386 15.117 1.96875C14.667 2.19375 14.2163 2.56008 13.7945 2.98196C12.725 4.13649 11.9087 5.93508 11.5712 7.65422C10.5573 7.9643 9.54406 8.27367 8.61805 8.55492C9.23398 5.85563 11.5135 1.77469 14.1031 1.71844ZM10.8385 17.1991C10.951 18.9998 15.7077 19.3943 15.9889 23.644C16.1858 26.9937 14.2156 29.2732 11.3729 29.4427C7.93953 29.6677 6.05375 27.6413 6.05375 27.6413L6.785 24.5475C6.785 24.5475 8.67078 25.9833 10.1909 25.8708C11.1753 25.8145 11.5423 24.9982 11.5135 24.435C11.3729 22.0711 7.48883 22.2117 7.2357 18.3277C7.0107 15.0623 9.14961 11.7696 13.8781 11.4595C15.7063 11.347 16.6365 11.7977 16.6365 11.7977L15.567 15.8477C15.567 15.8477 14.357 15.2852 12.9212 15.3977C10.8385 15.5391 10.8104 16.8609 10.8385 17.1991ZM17.5372 5.8275C17.5372 4.98375 17.4247 3.77297 17.0302 2.75977C18.3254 3.01289 18.9441 4.44727 19.2261 5.32125C18.7194 5.46188 18.1564 5.63063 17.5372 5.8275Z" fill="url(#paint0_linear_568:2767)"/>
</g>
<defs>
<linearGradient id="paint0_linear_568:2767" x1="-2.24699e-07" y1="10.5" x2="29.5" y2="33" gradientUnits="userSpaceOnUse">
<stop stop-color="#D30D0D" stop-opacity="0.3"/>
<stop offset="0.861332" stop-color="#D30D0D"/>
</linearGradient>
<clipPath id="clip0_568:2767">
<rect width="31.5" height="36" fill="white"/>
</clipPath>
</defs>
</svg>
