<svg width="36" height="36" viewBox="0 0 36 36" fill="none" xmlns="http://www.w3.org/2000/svg">
<path d="M19.6227 10.1243C19.0432 8.61482 16.9493 8.67386 16.3681 10.1098L16.368 10.1098L16.3642 10.1195L14.9783 13.6484L11.1777 13.8666L11.1777 13.8666L11.1699 13.8671C9.57016 13.9715 8.94583 15.9624 10.162 16.97L10.162 16.97L10.1671 16.9743L13.1207 19.3885L12.1585 23.0833C11.7362 24.6524 13.4726 25.8388 14.784 25.0105L14.784 25.0105L14.7914 25.0057L18.0017 22.9383L21.2067 24.9896C22.5527 25.8676 24.2537 24.6169 23.8415 23.0682L19.6227 10.1243ZM19.6227 10.1243L21.0076 13.6634L24.8073 13.8816L24.8165 13.8822L24.8165 13.8822C26.3756 13.9862 27.0578 15.9619 25.823 16.985L25.8179 16.9893L25.8179 16.9893L22.867 19.4012L23.8412 23.0673L19.6227 10.1243ZM4.91064 14.4708L4.90016 14.465L4.88955 14.4595C4.37228 14.1881 4.015 13.5575 4.015 12.81V8.985C4.015 7.88728 4.90228 7 6 7H30C31.0977 7 32 7.90228 32 9V12.81C32 13.5439 31.6367 14.1914 31.1109 14.4822C29.864 15.1571 29 16.4728 29 18C29 19.5272 29.864 20.8429 31.1109 21.5178C31.6367 21.8086 32 22.4561 32 23.19V27C32 28.0977 31.0977 29 30 29H6C4.90228 29 4 28.0977 4 27V23.19C4 22.4581 4.36133 21.812 4.88486 21.5201C6.14524 20.8548 7 19.5168 7 18C7 16.4782 6.15645 15.163 4.91064 14.4708Z" stroke="url(#paint0_linear_567:2677)" stroke-width="2"/>
<defs>
<linearGradient id="paint0_linear_567:2677" x1="18" y1="6" x2="18" y2="30" gradientUnits="userSpaceOnUse">
<stop stop-color="#33C7C7" stop-opacity="0.5"/>
<stop offset="1" stop-color="#33C7C7"/>
</linearGradient>
</defs>
</svg>
