<svg width="36" height="36" viewBox="0 0 36 36" fill="none" xmlns="http://www.w3.org/2000/svg">
<path d="M13.125 12.375C13.125 12.7728 12.967 13.1544 12.6857 13.4357C12.4044 13.717 12.0228 13.875 11.625 13.875C11.2272 13.875 10.8456 13.717 10.5643 13.4357C10.283 13.1544 10.125 12.7728 10.125 12.375C10.125 11.9772 10.283 11.5956 10.5643 11.3143C10.8456 11.033 11.2272 10.875 11.625 10.875C12.0228 10.875 12.4044 11.033 12.6857 11.3143C12.967 11.5956 13.125 11.9772 13.125 12.375Z" fill="url(#paint0_linear_567:2639)"/>
<path d="M15.75 12.375C15.75 12.0766 15.8685 11.7905 16.0795 11.5795C16.2905 11.3685 16.5766 11.25 16.875 11.25H25.125C25.4234 11.25 25.7095 11.3685 25.9205 11.5795C26.1315 11.7905 26.25 12.0766 26.25 12.375C26.25 12.6734 26.1315 12.9595 25.9205 13.1705C25.7095 13.3815 25.4234 13.5 25.125 13.5H16.875C16.5766 13.5 16.2905 13.3815 16.0795 13.1705C15.8685 12.9595 15.75 12.6734 15.75 12.375Z" fill="url(#paint1_linear_567:2639)"/>
<path d="M15.75 18C15.75 17.7016 15.8685 17.4155 16.0795 17.2045C16.2905 16.9935 16.5766 16.875 16.875 16.875H25.125C25.4234 16.875 25.7095 16.9935 25.9205 17.2045C26.1315 17.4155 26.25 17.7016 26.25 18C26.25 18.2984 26.1315 18.5845 25.9205 18.7955C25.7095 19.0065 25.4234 19.125 25.125 19.125H16.875C16.5766 19.125 16.2905 19.0065 16.0795 18.7955C15.8685 18.5845 15.75 18.2984 15.75 18Z" fill="url(#paint2_linear_567:2639)"/>
<path d="M16.875 22.5C16.5766 22.5 16.2905 22.6185 16.0795 22.8295C15.8685 23.0405 15.75 23.3266 15.75 23.625C15.75 23.9234 15.8685 24.2095 16.0795 24.4205C16.2905 24.6315 16.5766 24.75 16.875 24.75H25.125C25.4234 24.75 25.7095 24.6315 25.9205 24.4205C26.1315 24.2095 26.25 23.9234 26.25 23.625C26.25 23.3266 26.1315 23.0405 25.9205 22.8295C25.7095 22.6185 25.4234 22.5 25.125 22.5H16.875Z" fill="url(#paint3_linear_567:2639)"/>
<path d="M11.625 19.5C12.0228 19.5 12.4044 19.342 12.6857 19.0607C12.967 18.7794 13.125 18.3978 13.125 18C13.125 17.6022 12.967 17.2206 12.6857 16.9393C12.4044 16.658 12.0228 16.5 11.625 16.5C11.2272 16.5 10.8456 16.658 10.5643 16.9393C10.283 17.2206 10.125 17.6022 10.125 18C10.125 18.3978 10.283 18.7794 10.5643 19.0607C10.8456 19.342 11.2272 19.5 11.625 19.5Z" fill="url(#paint4_linear_567:2639)"/>
<path d="M13.125 23.6249C13.125 24.0228 12.967 24.4043 12.6857 24.6856C12.4044 24.9669 12.0228 25.1249 11.625 25.1249C11.2272 25.1249 10.8456 24.9669 10.5643 24.6856C10.283 24.4043 10.125 24.0228 10.125 23.6249C10.125 23.2271 10.283 22.8456 10.5643 22.5643C10.8456 22.283 11.2272 22.1249 11.625 22.1249C12.0228 22.1249 12.4044 22.283 12.6857 22.5643C12.967 22.8456 13.125 23.2271 13.125 23.6249Z" fill="url(#paint5_linear_567:2639)"/>
<path d="M7.875 4.5C6.97989 4.5 6.12145 4.85558 5.48851 5.48851C4.85558 6.12145 4.5 6.97989 4.5 7.875V28.125C4.5 29.0201 4.85558 29.8785 5.48851 30.5115C6.12145 31.1444 6.97989 31.5 7.875 31.5H28.125C29.0201 31.5 29.8785 31.1444 30.5115 30.5115C31.1444 29.8785 31.5 29.0201 31.5 28.125V7.875C31.5 6.97989 31.1444 6.12145 30.5115 5.48851C29.8785 4.85558 29.0201 4.5 28.125 4.5H7.875ZM6.75 7.875C6.75 7.57663 6.86853 7.29048 7.0795 7.0795C7.29048 6.86853 7.57663 6.75 7.875 6.75H28.125C28.4234 6.75 28.7095 6.86853 28.9205 7.0795C29.1315 7.29048 29.25 7.57663 29.25 7.875V28.125C29.25 28.4234 29.1315 28.7095 28.9205 28.9205C28.7095 29.1315 28.4234 29.25 28.125 29.25H7.875C7.57663 29.25 7.29048 29.1315 7.0795 28.9205C6.86853 28.7095 6.75 28.4234 6.75 28.125V7.875Z" fill="url(#paint6_linear_567:2639)"/>
<defs>
<linearGradient id="paint0_linear_567:2639" x1="11.625" y1="10.875" x2="11.625" y2="13.875" gradientUnits="userSpaceOnUse">
<stop stop-color="#33C7C7" stop-opacity="0.5"/>
<stop offset="1" stop-color="#33C7C7"/>
</linearGradient>
<linearGradient id="paint1_linear_567:2639" x1="21" y1="11.25" x2="21" y2="13.5" gradientUnits="userSpaceOnUse">
<stop stop-color="#33C7C7" stop-opacity="0.5"/>
<stop offset="1" stop-color="#33C7C7"/>
</linearGradient>
<linearGradient id="paint2_linear_567:2639" x1="21" y1="16.875" x2="21" y2="19.125" gradientUnits="userSpaceOnUse">
<stop stop-color="#33C7C7" stop-opacity="0.5"/>
<stop offset="1" stop-color="#33C7C7"/>
</linearGradient>
<linearGradient id="paint3_linear_567:2639" x1="21" y1="22.5" x2="21" y2="24.75" gradientUnits="userSpaceOnUse">
<stop stop-color="#33C7C7" stop-opacity="0.5"/>
<stop offset="1" stop-color="#33C7C7"/>
</linearGradient>
<linearGradient id="paint4_linear_567:2639" x1="11.625" y1="16.5" x2="11.625" y2="19.5" gradientUnits="userSpaceOnUse">
<stop stop-color="#33C7C7" stop-opacity="0.5"/>
<stop offset="1" stop-color="#33C7C7"/>
</linearGradient>
<linearGradient id="paint5_linear_567:2639" x1="11.625" y1="22.1249" x2="11.625" y2="25.1249" gradientUnits="userSpaceOnUse">
<stop stop-color="#33C7C7" stop-opacity="0.5"/>
<stop offset="1" stop-color="#33C7C7"/>
</linearGradient>
<linearGradient id="paint6_linear_567:2639" x1="18" y1="4.5" x2="18" y2="31.5" gradientUnits="userSpaceOnUse">
<stop stop-color="#33C7C7" stop-opacity="0.5"/>
<stop offset="1" stop-color="#33C7C7"/>
</linearGradient>
</defs>
</svg>
