<svg width="36" height="36" viewBox="0 0 36 36" fill="none" xmlns="http://www.w3.org/2000/svg">
<path d="M7.5 10.5H28.5C29.325 10.5 30 11.175 30 12C30 12.825 29.325 13.5 28.5 13.5H7.5C6.675 13.5 6 12.825 6 12C6 11.175 6.675 10.5 7.5 10.5Z" fill="url(#paint0_linear_567:2681)"/>
<path d="M7.5 19.5H28.5C29.325 19.5 30 18.825 30 18C30 17.175 29.325 16.5 28.5 16.5H7.5C6.675 16.5 6 17.175 6 18C6 18.825 6.675 19.5 7.5 19.5Z" fill="url(#paint1_linear_567:2681)"/>
<path d="M7.5 25.5H15C15.825 25.5 16.5 24.825 16.5 24C16.5 23.175 15.825 22.5 15 22.5H7.5C6.675 22.5 6 23.175 6 24C6 24.825 6.675 25.5 7.5 25.5Z" fill="url(#paint2_linear_567:2681)"/>
<path d="M7.5 31.5H15C15.825 31.5 16.5 30.825 16.5 30C16.5 29.175 15.825 28.5 15 28.5H7.5C6.675 28.5 6 29.175 6 30C6 30.825 6.675 31.5 7.5 31.5Z" fill="url(#paint3_linear_567:2681)"/>
<path d="M23.1148 27.255L22.0498 26.19C21.4648 25.605 20.5198 25.605 19.9348 26.19C19.3498 26.775 19.3498 27.72 19.9348 28.305L22.0648 30.435C22.6498 31.02 23.5948 31.02 24.1798 30.435L28.9348 25.68C29.5198 25.095 29.5198 24.15 28.9348 23.565C28.3498 22.98 27.4048 22.98 26.8198 23.565L23.1148 27.255Z" fill="url(#paint4_linear_567:2681)"/>
<path d="M6 6C6 6.825 6.675 7.5 7.5 7.5H28.5C29.325 7.5 30 6.825 30 6C30 5.175 29.325 4.5 28.5 4.5H7.5C6.675 4.5 6 5.175 6 6Z" fill="url(#paint5_linear_567:2681)"/>
<defs>
<linearGradient id="paint0_linear_567:2681" x1="18" y1="10.5" x2="18" y2="13.5" gradientUnits="userSpaceOnUse">
<stop stop-color="#EB7513" stop-opacity="0.5"/>
<stop offset="1" stop-color="#EB7513"/>
</linearGradient>
<linearGradient id="paint1_linear_567:2681" x1="18" y1="16.5" x2="18" y2="19.5" gradientUnits="userSpaceOnUse">
<stop stop-color="#EB7513" stop-opacity="0.5"/>
<stop offset="1" stop-color="#EB7513"/>
</linearGradient>
<linearGradient id="paint2_linear_567:2681" x1="11.25" y1="22.5" x2="11.25" y2="25.5" gradientUnits="userSpaceOnUse">
<stop stop-color="#EB7513" stop-opacity="0.5"/>
<stop offset="1" stop-color="#EB7513"/>
</linearGradient>
<linearGradient id="paint3_linear_567:2681" x1="11.25" y1="28.5" x2="11.25" y2="31.5" gradientUnits="userSpaceOnUse">
<stop stop-color="#EB7513" stop-opacity="0.5"/>
<stop offset="1" stop-color="#EB7513"/>
</linearGradient>
<linearGradient id="paint4_linear_567:2681" x1="24.4348" y1="23.1262" x2="24.4348" y2="30.8737" gradientUnits="userSpaceOnUse">
<stop stop-color="#EB7513" stop-opacity="0.5"/>
<stop offset="1" stop-color="#EB7513"/>
</linearGradient>
<linearGradient id="paint5_linear_567:2681" x1="18" y1="4.5" x2="18" y2="7.5" gradientUnits="userSpaceOnUse">
<stop stop-color="#EB7513" stop-opacity="0.5"/>
<stop offset="1" stop-color="#EB7513"/>
</linearGradient>
</defs>
</svg>
