<svg width="36" height="36" viewBox="0 0 36 36" fill="none" xmlns="http://www.w3.org/2000/svg">
<path d="M19.2615 22.65L18 19.5L16.7385 22.65L13.5 22.938L15.96 25.1715L15.219 28.5L18 26.7315L20.781 28.5L20.04 25.1715L22.5 22.938L19.2615 22.65Z" fill="url(#paint0_linear_567:2685)"/>
<path d="M9 3H27V6H9V3Z" fill="url(#paint1_linear_567:2685)"/>
<path d="M6 9H30V12H6V9Z" fill="url(#paint2_linear_567:2685)"/>
<path d="M30 18V30H6V18H30ZM30 15H6C5.20435 15 4.44129 15.3161 3.87868 15.8787C3.31607 16.4413 3 17.2044 3 18V30C3 30.7956 3.31607 31.5587 3.87868 32.1213C4.44129 32.6839 5.20435 33 6 33H30C30.7956 33 31.5587 32.6839 32.1213 32.1213C32.6839 31.5587 33 30.7956 33 30V18C33 17.2044 32.6839 16.4413 32.1213 15.8787C31.5587 15.3161 30.7956 15 30 15Z" fill="url(#paint3_linear_567:2685)"/>
<defs>
<linearGradient id="paint0_linear_567:2685" x1="13.3914" y1="22.0648" x2="21.2024" y2="28.8196" gradientUnits="userSpaceOnUse">
<stop stop-color="#D30D0D" stop-opacity="0.3"/>
<stop offset="0.861332" stop-color="#D30D0D"/>
</linearGradient>
<linearGradient id="paint1_linear_567:2685" x1="8.78285" y1="3.85494" x2="9.76073" y2="8.92883" gradientUnits="userSpaceOnUse">
<stop stop-color="#D30D0D" stop-opacity="0.3"/>
<stop offset="0.861332" stop-color="#D30D0D"/>
</linearGradient>
<linearGradient id="paint2_linear_567:2685" x1="5.71046" y1="9.85494" x2="6.45555" y2="15.0096" gradientUnits="userSpaceOnUse">
<stop stop-color="#D30D0D" stop-opacity="0.3"/>
<stop offset="0.861332" stop-color="#D30D0D"/>
</linearGradient>
<linearGradient id="paint3_linear_567:2685" x1="2.63808" y1="20.1296" x2="17.4261" y2="41.4436" gradientUnits="userSpaceOnUse">
<stop stop-color="#D30D0D" stop-opacity="0.3"/>
<stop offset="0.861332" stop-color="#D30D0D"/>
</linearGradient>
</defs>
</svg>
