<svg width="20" height="20" viewBox="0 0 20 20" fill="none" xmlns="http://www.w3.org/2000/svg">
<path d="M2.5 2.5L17.5 17.5" stroke="#B9B9B9" stroke-width="2" stroke-linecap="round" stroke-linejoin="round"/>
<path d="M8.81875 8.82251C8.50601 9.13502 8.33023 9.55897 8.33008 10.0011C8.32992 10.4432 8.5054 10.8673 8.81792 11.18C9.13043 11.4927 9.55438 11.6685 9.99649 11.6687C10.4386 11.6688 10.8627 11.4934 11.1754 11.1808" stroke="#B9B9B9" stroke-width="2" stroke-linecap="round" stroke-linejoin="round"/>
<path d="M14.4635 14.4574C13.1043 15.3741 11.6177 15.8332 9.99935 15.8332C6.66602 15.8332 3.88852 13.8891 1.66602 9.99989C2.80685 8.00405 4.09352 6.52072 5.52602 5.54905M7.80185 4.47072C8.51636 4.26632 9.25618 4.16392 9.99935 4.16655C13.3327 4.16655 16.1102 6.11072 18.3327 9.99989C17.6843 11.1341 16.9893 12.1032 16.2468 12.9066L7.80185 4.47072Z" stroke="#B9B9B9" stroke-width="2" stroke-linecap="round" stroke-linejoin="round"/>
</svg>
