<svg width="24" height="24" viewBox="0 0 24 24" fill="none" xmlns="http://www.w3.org/2000/svg">
<g clip-path="url(#clip0)">
<path d="M9.11359 -8.06288e-05C8.97961 0.019842 8.85166 0.0690047 8.73882 0.143919C8.73882 0.143919 7.57113 0.878689 6.31574 1.67346C5.06036 2.4673 3.66374 3.34238 3.34436 3.51961C3.32466 3.52816 3.30526 3.5374 3.2862 3.5473C2.12682 4.26269 1.8859 5.4313 1.84436 6.08669C1.84159 6.11715 1.84436 6.14207 1.84436 6.17438C1.8342 6.41992 1.84436 6.57777 1.84436 6.57777V18.6359C1.84436 20.3879 3.88713 21.2307 5.82559 21.2307C6.47174 21.2307 7.1179 21.1264 7.67174 20.9418C8.04097 20.7572 8.3059 20.3879 8.3059 20.0187V10.3264C8.3059 8.2033 8.76743 7.20638 10.152 6.37561C10.5213 6.191 14.3927 3.51869 14.3927 3.51869C14.5773 3.33407 14.7674 2.9593 14.7674 2.68238V2.59561C14.7674 2.22638 14.5828 1.94392 14.3059 1.7593C14.029 1.57469 13.6597 1.57469 13.3828 1.7593C13.2905 1.85161 7.65974 5.64269 6.45974 6.28884C5.25974 7.0273 4.14005 7.20546 3.86313 6.83623C3.77728 6.75038 3.70251 6.4873 3.69051 6.23069V6.20207V6.17253C3.69143 5.92146 3.75605 5.44884 4.26743 5.13407C4.7862 4.84515 6.0739 4.02269 7.32559 3.23069C7.85451 2.89561 7.92005 2.85961 8.33451 2.59561C8.38907 2.82111 8.52655 3.0178 8.71957 3.14652C8.9126 3.27524 9.14702 3.32655 9.37617 3.29024C9.60531 3.25393 9.81239 3.13266 9.95616 2.95058C10.0999 2.76849 10.1699 2.53893 10.152 2.30761V0.922996C10.1531 0.791425 10.126 0.661154 10.0725 0.540916C10.0191 0.420677 9.9406 0.31325 9.84226 0.225837C9.74392 0.138423 9.62803 0.0730427 9.50235 0.034079C9.37668 -0.00488475 9.24413 -0.0165315 9.11359 -8.06288e-05ZM16.4982 3.23069C16.3514 3.2551 16.2127 3.31464 16.0939 3.40423C16.0939 3.40423 11.4471 6.53069 10.6422 7.067C10.6324 7.07663 10.6229 7.08648 10.6136 7.09654C9.94528 7.59777 9.54928 8.19407 9.37297 8.73961C9.24836 9.12638 9.22989 9.44207 9.22897 9.69223V9.98115C9.22764 10.0097 9.22764 10.0384 9.22897 10.067V21.2307C9.22897 22.9845 11.2487 23.9999 13.0948 23.9999C13.9256 23.9999 14.6751 23.8208 15.229 23.4516C16.3367 22.8055 21.6905 18.635 21.6905 18.635C21.9674 18.4504 22.152 18.1901 22.152 17.9132V5.91315C22.152 5.45161 21.973 5.17469 21.6037 4.99007C21.3268 4.80546 20.8717 4.89223 20.5948 5.07684C19.1179 6.18454 15.1422 9.31192 14.2191 9.86576C12.9268 10.6042 11.7093 10.7888 11.2477 10.3273C11.0631 10.1427 11.0751 9.96915 11.0751 9.69223C11.0807 9.53346 11.0982 9.39684 11.1333 9.28792C11.185 9.1273 11.2902 8.92976 11.6807 8.62515C11.6991 8.61038 11.6899 8.6113 11.7093 8.59653C12.3767 8.15069 14.4176 6.75961 15.7487 5.855C15.8241 6.05731 15.968 6.22678 16.1555 6.33394C16.3429 6.4411 16.562 6.47917 16.7746 6.44152C16.9872 6.40388 17.1798 6.2929 17.3191 6.12789C17.4583 5.96288 17.5353 5.75428 17.5367 5.53838V4.15377C17.5377 4.02219 17.5106 3.89192 17.4572 3.77168C17.4037 3.65145 17.3252 3.54402 17.2269 3.45661C17.1285 3.36919 17.0126 3.30381 16.887 3.26485C16.7613 3.22588 16.6287 3.21424 16.4982 3.23069ZM20.3059 9.98115V11.8273L15.6905 15.4033V13.5571L20.3059 9.98115Z" fill="#363636"/>
</g>
<defs>
<clipPath id="clip0">
<rect width="24" height="24" fill="white"/>
</clipPath>
</defs>
</svg>
