<svg width="16" height="14" viewBox="0 0 16 14" fill="none" xmlns="http://www.w3.org/2000/svg">
<path d="M4.85355 1.39645C4.65829 1.20118 4.34171 1.20118 4.14645 1.39645L0.964466 4.57843C0.769204 4.77369 0.769204 5.09027 0.964466 5.28553C1.15973 5.4808 1.47631 5.4808 1.67157 5.28553L4.5 2.45711L7.32843 5.28553C7.52369 5.4808 7.84027 5.4808 8.03553 5.28553C8.2308 5.09027 8.2308 4.77369 8.03553 4.57843L4.85355 1.39645ZM4 12.25C4 12.5261 4.22386 12.75 4.5 12.75C4.77614 12.75 5 12.5261 5 12.25H4ZM4 1.75V12.25H5V1.75H4Z" fill="#363636"/>
<path d="M12 1.75C12 1.47386 11.7761 1.25 11.5 1.25C11.2239 1.25 11 1.47386 11 1.75H12ZM11.1464 12.6036C11.3417 12.7988 11.6583 12.7988 11.8536 12.6036L15.0355 9.42157C15.2308 9.22631 15.2308 8.90973 15.0355 8.71447C14.8403 8.5192 14.5237 8.5192 14.3284 8.71447L11.5 11.5429L8.67157 8.71447C8.47631 8.5192 8.15973 8.5192 7.96447 8.71447C7.7692 8.90973 7.7692 9.22631 7.96447 9.42157L11.1464 12.6036ZM11 1.75V12.25H12V1.75H11Z" fill="#363636"/>
</svg>
