<svg width="16" height="16" viewBox="0 0 16 16" fill="none" xmlns="http://www.w3.org/2000/svg">
<path d="M8.00065 1.33333C4.32065 1.33333 1.33398 4.32 1.33398 8C1.33398 11.68 4.32065 14.6667 8.00065 14.6667C11.6807 14.6667 14.6673 11.68 14.6673 8C14.6673 4.32 11.6807 1.33333 8.00065 1.33333ZM8.00065 13.3333C5.05399 13.3333 2.66732 10.9467 2.66732 8C2.66732 5.05333 5.05399 2.66666 8.00065 2.66666C10.9473 2.66666 13.334 5.05333 13.334 8C13.334 10.9467 10.9473 13.3333 8.00065 13.3333Z" fill="#646464"/>
<path d="M7.99935 11.3333C9.8403 11.3333 11.3327 9.84095 11.3327 8.00001C11.3327 6.15906 9.8403 4.66667 7.99935 4.66667C6.1584 4.66667 4.66602 6.15906 4.66602 8.00001C4.66602 9.84095 6.1584 11.3333 7.99935 11.3333Z" fill="#646464"/>
</svg>
