<svg width="64" height="64" viewBox="0 0 64 64" fill="none" xmlns="http://www.w3.org/2000/svg">
<path d="M32.0007 5.33337C17.2807 5.33337 5.33398 17.28 5.33398 32C5.33398 46.72 17.2807 58.6667 32.0007 58.6667C46.7207 58.6667 58.6673 46.72 58.6673 32C58.6673 17.28 46.7207 5.33337 32.0007 5.33337ZM32.0007 13.3334C36.4273 13.3334 40.0007 16.9067 40.0007 21.3334C40.0007 25.76 36.4273 29.3334 32.0007 29.3334C27.574 29.3334 24.0007 25.76 24.0007 21.3334C24.0007 16.9067 27.574 13.3334 32.0007 13.3334ZM32.0007 51.2C25.334 51.2 19.4407 47.7867 16.0007 42.6134C16.0807 37.3067 26.6673 34.4 32.0007 34.4C37.3073 34.4 47.9207 37.3067 48.0007 42.6134C44.5607 47.7867 38.6673 51.2 32.0007 51.2Z" fill="#363636"/>
</svg>
