<svg width="28" height="28" viewBox="0 0 28 28" fill="none" xmlns="http://www.w3.org/2000/svg">
<path d="M23.334 4.66663H4.66732C3.38398 4.66663 2.33398 5.71663 2.33398 6.99996V21C2.33398 22.2833 3.38398 23.3333 4.66732 23.3333H23.334C24.6173 23.3333 25.6673 22.2833 25.6673 21V6.99996C25.6673 5.71663 24.6173 4.66663 23.334 4.66663ZM22.8673 9.62496L15.2373 14.3966C14.479 14.875 13.5223 14.875 12.764 14.3966L5.13398 9.62496C4.84232 9.43829 4.66732 9.12329 4.66732 8.78496C4.66732 8.00329 5.51898 7.53663 6.18398 7.94496L14.0007 12.8333L21.8173 7.94496C22.4823 7.53663 23.334 8.00329 23.334 8.78496C23.334 9.12329 23.159 9.43829 22.8673 9.62496Z" fill="#323232"/>
</svg>
