<svg width="32" height="32" viewBox="0 0 32 32" fill="none" xmlns="http://www.w3.org/2000/svg">
<path d="M28.0405 3.96C28.9351 4.85467 29.4377 6.06809 29.4377 7.33334C29.4377 8.59858 28.9351 9.812 28.0405 10.7067L12.0831 26.6667C11.714 27.036 11.2549 27.3025 10.7511 27.44L3.92981 29.3C3.7598 29.3461 3.58061 29.3465 3.4104 29.3011C3.24018 29.2558 3.08497 29.1662 2.96048 29.0416C2.83598 28.917 2.74662 28.7617 2.70143 28.5914C2.65624 28.4211 2.65683 28.242 2.70314 28.072L4.56314 21.2507C4.70061 20.7469 4.96717 20.2878 5.33648 19.9187L21.2938 3.96C22.1885 3.06535 23.4019 2.56274 24.6671 2.56274C25.9324 2.56274 27.1458 3.06535 28.0405 3.96ZM20.0005 8.08L6.74981 21.3333C6.62687 21.4564 6.53817 21.6095 6.49248 21.7773L5.09248 26.9107L10.2258 25.5107C10.393 25.4638 10.5451 25.3742 10.6671 25.2507L23.9205 12L20.0005 8.08ZM22.7071 5.37334L21.4138 6.66667L25.3338 10.5867L26.6271 9.29333C27.1383 8.77172 27.423 8.06945 27.4193 7.33913C27.4156 6.60881 27.1239 5.90946 26.6074 5.39303C26.091 4.87661 25.3917 4.58486 24.6613 4.58117C23.931 4.57748 23.2288 4.86216 22.7071 5.37334Z" fill="#363636"/>
</svg>
