<svg width="20" height="20" viewBox="0 0 20 20" fill="none" xmlns="http://www.w3.org/2000/svg">
<path d="M8.74912 13.7501C10.0752 13.7501 11.347 13.2233 12.2846 12.2856C13.2223 11.3479 13.7491 10.0762 13.7491 8.75009C13.7491 7.42401 13.2223 6.15224 12.2846 5.21456C11.347 4.27688 10.0752 3.75009 8.74912 3.75009C7.42303 3.75009 6.15126 4.27688 5.21358 5.21456C4.2759 6.15224 3.74912 7.42401 3.74912 8.75009C3.74912 10.0762 4.2759 11.3479 5.21358 12.2856C6.15126 13.2233 7.42303 13.7501 8.74912 13.7501ZM14.0158 12.8384L16.9991 15.8218C17.0787 15.8987 17.1421 15.9907 17.1857 16.0924C17.2293 16.1941 17.2522 16.3035 17.2531 16.4141C17.2539 16.5248 17.2328 16.6345 17.1908 16.7369C17.1488 16.8392 17.0869 16.9322 17.0086 17.0104C16.9303 17.0886 16.8372 17.1504 16.7348 17.1922C16.6323 17.2341 16.5226 17.2551 16.4119 17.254C16.3013 17.253 16.192 17.2299 16.0903 17.1862C15.9887 17.1425 15.8968 17.0789 15.82 16.9993L12.8366 14.0159C11.497 15.0558 9.81144 15.5461 8.12308 15.3869C6.43471 15.2278 4.87045 14.4312 3.74874 13.1593C2.62703 11.8874 2.03219 10.2359 2.08531 8.54086C2.13842 6.84585 2.83551 5.23478 4.03466 4.03563C5.2338 2.83648 6.84487 2.1394 8.53989 2.08628C10.2349 2.03316 11.8865 2.62801 13.1583 3.74972C14.4302 4.87143 15.2268 6.43569 15.3859 8.12405C15.5451 9.81242 15.0548 11.498 14.0149 12.8376L14.0158 12.8384Z" fill="black"/>
</svg>
