<svg width="28" height="28" viewBox="0 0 28 28" fill="none" xmlns="http://www.w3.org/2000/svg">
<path d="M25.2871 17.1091L23.4961 15.5778C23.5809 15.0583 23.6246 14.5278 23.6246 13.9973C23.6246 13.4669 23.5809 12.9364 23.4961 12.4169L25.2871 10.8856C25.4222 10.77 25.5189 10.6159 25.5643 10.444C25.6097 10.2721 25.6017 10.0904 25.5414 9.92312L25.5168 9.85203C25.0237 8.47397 24.2854 7.1965 23.3375 6.08132L23.2883 6.0239C23.1733 5.88869 23.02 5.7915 22.8487 5.74513C22.6774 5.69875 22.496 5.70538 22.3285 5.76414L20.1055 6.55437C19.2852 5.88171 18.3691 5.35125 17.3793 4.97937L16.95 2.65515C16.9176 2.48027 16.8328 2.31938 16.7068 2.19386C16.5808 2.06834 16.4195 1.98413 16.2445 1.95242L16.1707 1.93875C14.7461 1.68171 13.2477 1.68171 11.8231 1.93875L11.7492 1.95242C11.5742 1.98413 11.413 2.06834 11.287 2.19386C11.161 2.31938 11.0761 2.48027 11.0438 2.65515L10.6117 4.99031C9.62978 5.36226 8.71534 5.89245 7.90469 6.55984L5.66524 5.76414C5.4978 5.70492 5.31631 5.69805 5.14487 5.74445C4.97344 5.79085 4.82019 5.88832 4.70547 6.0239L4.65626 6.08132C3.70947 7.19729 2.97127 8.47455 2.47696 9.85203L2.45235 9.92312C2.3293 10.2649 2.43047 10.6477 2.70665 10.8856L4.51954 12.4333C4.43477 12.9473 4.39376 13.4723 4.39376 13.9946C4.39376 14.5196 4.43477 15.0446 4.51954 15.5559L2.70665 17.1036C2.57156 17.2192 2.47487 17.3733 2.42945 17.5452C2.38402 17.7171 2.39201 17.8988 2.45235 18.0661L2.47696 18.1372C2.97188 19.5153 3.70469 20.7868 4.65626 21.9079L4.70547 21.9653C4.82047 22.1005 4.97373 22.1977 5.14506 22.2441C5.31639 22.2905 5.49775 22.2838 5.66524 22.2251L7.90469 21.4294C8.71954 22.0993 9.63008 22.6298 10.6117 22.9989L11.0438 25.3341C11.0761 25.5089 11.161 25.6698 11.287 25.7954C11.413 25.9209 11.5742 26.0051 11.7492 26.0368L11.8231 26.0505C13.2608 26.3089 14.733 26.3089 16.1707 26.0505L16.2445 26.0368C16.4195 26.0051 16.5808 25.9209 16.7068 25.7954C16.8328 25.6698 16.9176 25.5089 16.95 25.3341L17.3793 23.0098C18.3687 22.6389 19.2899 22.1067 20.1055 21.4348L22.3285 22.2251C22.496 22.2843 22.6775 22.2912 22.8489 22.2448C23.0203 22.1984 23.1736 22.1009 23.2883 21.9653L23.3375 21.9079C24.2891 20.7841 25.0219 19.5153 25.5168 18.1372L25.5414 18.0661C25.6645 17.7298 25.5633 17.347 25.2871 17.1091ZM21.5547 12.7395C21.6231 13.1524 21.6586 13.5762 21.6586 14.0001C21.6586 14.4239 21.6231 14.8477 21.5547 15.2606L21.3742 16.3571L23.4168 18.1044C23.1072 18.8177 22.7163 19.493 22.252 20.1169L19.7145 19.2173L18.8559 19.9227C18.2023 20.4587 17.475 20.8798 16.6875 21.1751L15.6457 21.5661L15.1563 24.2184C14.384 24.3059 13.6043 24.3059 12.832 24.2184L12.3426 21.5606L11.309 21.1641C10.5297 20.8688 9.80508 20.4477 9.15704 19.9145L8.29844 19.2063L5.74454 20.1141C5.27969 19.488 4.89141 18.8126 4.57969 18.1016L6.64415 16.338L6.46641 15.2442C6.40079 14.8368 6.36524 14.4157 6.36524 14.0001C6.36524 13.5817 6.39805 13.1634 6.46641 12.7559L6.64415 11.6622L4.57969 9.89851C4.88868 9.18484 5.27969 8.51218 5.74454 7.88601L8.29844 8.79382L9.15704 8.08562C9.80508 7.55242 10.5297 7.13132 11.309 6.83601L12.3453 6.445L12.8348 3.78718C13.6031 3.69968 14.3879 3.69968 15.159 3.78718L15.6484 6.43953L16.6902 6.83054C17.475 7.12585 18.2051 7.54695 18.8586 8.08289L19.7172 8.78835L22.2547 7.88875C22.7195 8.51492 23.1078 9.19031 23.4195 9.90125L21.377 11.6485L21.5547 12.7395ZM13.9996 8.91414C11.3418 8.91414 9.18711 11.0688 9.18711 13.7266C9.18711 16.3844 11.3418 18.5391 13.9996 18.5391C16.6574 18.5391 18.8121 16.3844 18.8121 13.7266C18.8121 11.0688 16.6574 8.91414 13.9996 8.91414ZM16.1652 15.8923C15.8812 16.1771 15.5436 16.403 15.172 16.5569C14.8003 16.7108 14.4019 16.7898 13.9996 16.7891C13.182 16.7891 12.4137 16.4692 11.834 15.8923C11.5491 15.6082 11.3232 15.2707 11.1693 14.899C11.0154 14.5273 10.9365 14.1289 10.9371 13.7266C10.9371 12.9091 11.257 12.1407 11.834 11.561C12.4137 10.9813 13.182 10.6641 13.9996 10.6641C14.8172 10.6641 15.5856 10.9813 16.1652 11.561C16.4501 11.8451 16.676 12.1826 16.8299 12.5543C16.9838 12.9259 17.0627 13.3244 17.0621 13.7266C17.0621 14.5442 16.7422 15.3126 16.1652 15.8923Z" fill="#363636"/>
</svg>
