<svg width="32" height="32" viewBox="0 0 32 32" fill="none" xmlns="http://www.w3.org/2000/svg">
<path d="M22.9961 4H8.99609C8.46584 4.0006 7.95748 4.2115 7.58254 4.58644C7.20759 4.96139 6.99669 5.46975 6.99609 6V28C6.99609 28.1785 7.04387 28.3538 7.13448 28.5076C7.22508 28.6614 7.3552 28.7881 7.51132 28.8746C7.66745 28.9612 7.8439 29.0043 8.02234 28.9997C8.20079 28.995 8.37472 28.9426 8.52609 28.848L15.9953 24.1793L23.4662 28.848C23.6176 28.9426 23.7915 28.995 23.97 28.9997C24.1484 29.0043 24.3249 28.9612 24.481 28.8746C24.6371 28.7881 24.7672 28.6614 24.8578 28.5076C24.9484 28.3538 24.9962 28.1785 24.9962 28V6C24.9956 5.46975 24.7847 4.96139 24.4098 4.58644C24.0348 4.2115 23.5265 4.0006 22.9962 4H22.9961ZM22.9961 26.1959L16.5252 22.152C16.3663 22.0527 16.1826 22 15.9952 22C15.8078 22 15.6242 22.0527 15.4652 22.152L8.99622 26.1958V6H22.9962L22.9961 26.1959Z" fill="#363636"/>
</svg>
