<svg width="32" height="32" viewBox="0 0 32 32" fill="none" xmlns="http://www.w3.org/2000/svg">
<path d="M15.9857 6.66654V2.94654C15.9857 2.34654 15.2657 2.05321 14.8524 2.47988L9.79905 7.53321C9.53238 7.79988 9.53238 8.21321 9.79905 8.47988L14.8524 13.5332C15.2657 13.9465 15.9857 13.6532 15.9857 13.0665V9.33321C20.959 9.33321 24.8924 13.8932 23.799 19.0532C23.1724 22.0799 20.719 24.5199 17.7057 25.1465C12.9457 26.1465 8.70571 22.8799 8.06571 18.4665C7.98571 17.8265 7.42571 17.3332 6.75905 17.3332C5.95905 17.3332 5.31905 18.0399 5.42571 18.8399C6.25238 24.6932 11.8257 29.0265 18.1324 27.7999C22.2924 26.9865 25.639 23.6399 26.4524 19.4799C27.7724 12.6399 22.5857 6.66654 15.9857 6.66654ZM14.519 21.3332H13.3857V16.9865L12.039 17.3999V16.4799L14.399 15.6399H14.519V21.3332ZM20.2257 18.9865C20.2257 19.4132 20.1857 19.7865 20.0924 20.0799C19.999 20.3732 19.8657 20.6399 19.7057 20.8399C19.5457 21.0399 19.3324 21.1865 19.1057 21.2799C18.879 21.3732 18.6124 21.4132 18.319 21.4132C18.0257 21.4132 17.7724 21.3732 17.5324 21.2799C17.2924 21.1865 17.0924 21.0399 16.919 20.8399C16.7457 20.6399 16.6124 20.3865 16.519 20.0799C16.4257 19.7732 16.3724 19.4132 16.3724 18.9865V17.9999C16.3724 17.5732 16.4124 17.1999 16.5057 16.9065C16.599 16.6132 16.7324 16.3465 16.8924 16.1465C17.0524 15.9465 17.2657 15.7999 17.4924 15.7065C17.719 15.6132 17.9857 15.5732 18.279 15.5732C18.5724 15.5732 18.8257 15.6132 19.0657 15.7065C19.3057 15.7999 19.5057 15.9465 19.679 16.1465C19.8524 16.3465 19.9857 16.5999 20.079 16.9065C20.1724 17.2132 20.2257 17.5732 20.2257 17.9999V18.9865ZM19.0924 17.8399C19.0924 17.5865 19.079 17.3732 19.039 17.1999C18.999 17.0265 18.9457 16.8932 18.879 16.7865C18.8124 16.6799 18.7324 16.5999 18.6257 16.5599C18.519 16.5199 18.4124 16.4932 18.2924 16.4932C18.1724 16.4932 18.0524 16.5199 17.959 16.5599C17.8657 16.5999 17.7724 16.6799 17.7057 16.7865C17.639 16.8932 17.5857 17.0265 17.5457 17.1999C17.5057 17.3732 17.4924 17.5865 17.4924 17.8399V19.1332C17.4924 19.3865 17.5057 19.5999 17.5457 19.7732C17.5857 19.9465 17.639 20.0932 17.7057 20.1999C17.7724 20.3065 17.8524 20.3865 17.959 20.4265C18.0657 20.4665 18.1724 20.4932 18.2924 20.4932C18.4124 20.4932 18.5324 20.4665 18.6257 20.4265C18.719 20.3865 18.8124 20.3065 18.879 20.1999C18.9457 20.0932 18.999 19.9465 19.0257 19.7732C19.0524 19.5999 19.079 19.3865 19.079 19.1332V17.8399H19.0924Z" fill="#363636"/>
</svg>
