<svg width="32" height="32" viewBox="0 0 32 32" fill="none" xmlns="http://www.w3.org/2000/svg">
<path d="M25.2258 17.3334C24.5592 17.3334 24.0125 17.8267 23.9192 18.4801C23.2792 22.9734 18.8925 26.2667 14.0258 25.0934C11.0258 24.3734 8.81251 22.0667 8.17251 19.0534C7.09251 13.8934 11.0258 9.33342 15.9992 9.33342V13.0534C15.9992 13.6534 16.7192 13.9468 17.1325 13.5201L22.1858 8.46675C22.4525 8.20008 22.4525 7.78675 22.1858 7.52008L17.1325 2.46675C16.7192 2.05342 15.9992 2.34675 15.9992 2.94675V6.66675C9.41251 6.66675 4.21251 12.6401 5.54585 19.4667C6.34585 23.6134 9.41251 26.8001 13.5325 27.7201C19.9725 29.1601 25.7325 24.7867 26.5592 18.8267C26.6792 18.0401 26.0258 17.3334 25.2258 17.3334ZM14.5325 21.3334V15.6401H14.4125L12.0525 16.4801V17.4001L13.3992 16.9867V21.3334H14.5325ZM19.0925 15.7067C18.8525 15.6134 18.5992 15.5734 18.3058 15.5734C18.0125 15.5734 17.7592 15.6134 17.5192 15.7067C17.2792 15.8001 17.0792 15.9467 16.9192 16.1467C16.7592 16.3467 16.6125 16.6001 16.5325 16.9067C16.4525 17.2134 16.3992 17.5734 16.3992 18.0001V18.9867C16.3992 19.4134 16.4525 19.7868 16.5458 20.0801C16.6392 20.3734 16.7725 20.6401 16.9458 20.8401C17.1192 21.0401 17.3192 21.1868 17.5592 21.2801C17.7992 21.3734 18.0525 21.4134 18.3458 21.4134C18.6392 21.4134 18.8925 21.3734 19.1325 21.2801C19.3725 21.1868 19.5725 21.0401 19.7325 20.8401C19.8925 20.6401 20.0258 20.3867 20.1192 20.0801C20.2125 19.7734 20.2525 19.4134 20.2525 18.9867V18.0001C20.2525 17.5734 20.1992 17.2001 20.1058 16.9067C20.0125 16.6134 19.8792 16.3467 19.7058 16.1467C19.5325 15.9467 19.3192 15.8001 19.0925 15.7067ZM19.1058 19.1334C19.1058 19.3867 19.0925 19.6001 19.0525 19.7734C19.0125 19.9467 18.9725 20.0934 18.9058 20.2001C18.8392 20.3067 18.7592 20.3867 18.6525 20.4267C18.5458 20.4667 18.4392 20.4934 18.3192 20.4934C18.1992 20.4934 18.0792 20.4667 17.9858 20.4267C17.8925 20.3867 17.7992 20.3067 17.7325 20.2001C17.6658 20.0934 17.6125 19.9467 17.5725 19.7734C17.5325 19.6001 17.5192 19.3867 17.5192 19.1334V17.8401C17.5192 17.5868 17.5325 17.3734 17.5725 17.2001C17.6125 17.0267 17.6525 16.8934 17.7325 16.7867C17.8125 16.6801 17.8792 16.6001 17.9858 16.5601C18.0925 16.5201 18.1992 16.4934 18.3192 16.4934C18.4392 16.4934 18.5592 16.5201 18.6525 16.5601C18.7458 16.6001 18.8392 16.6801 18.9058 16.7867C18.9725 16.8934 19.0258 17.0267 19.0658 17.2001C19.1058 17.3734 19.1192 17.5868 19.1192 17.8401V19.1334H19.1058Z" fill="#363636"/>
</svg>
