<svg width="20" height="20" viewBox="0 0 20 20" fill="none" xmlns="http://www.w3.org/2000/svg">
<path d="M10.8346 9.70092L11.7688 8.76758C11.9259 8.61567 12.1363 8.53152 12.3548 8.53326C12.5733 8.53501 12.7824 8.6225 12.937 8.7769C13.0916 8.9313 13.1794 9.14025 13.1815 9.35875C13.1835 9.57724 13.0997 9.78781 12.948 9.94508L10.5905 12.3026C10.5133 12.3802 10.4215 12.4419 10.3203 12.4839C10.2192 12.526 10.1108 12.5476 10.0013 12.5476C9.8918 12.5476 9.78337 12.526 9.68226 12.4839C9.58115 12.4419 9.48935 12.3802 9.41214 12.3026L7.05464 9.94508C6.97727 9.8676 6.91591 9.77564 6.87408 9.67445C6.83225 9.57326 6.81076 9.46482 6.81084 9.35533C6.811 9.13419 6.89899 8.92217 7.05547 8.76592C7.21195 8.60966 7.42409 8.52196 7.64523 8.52212C7.86636 8.52227 8.07838 8.61027 8.23464 8.76675L9.16797 9.70092V5.00008C9.16797 4.77907 9.25577 4.56711 9.41205 4.41083C9.56833 4.25455 9.78029 4.16675 10.0013 4.16675C10.2223 4.16675 10.4343 4.25455 10.5906 4.41083C10.7468 4.56711 10.8346 4.77907 10.8346 5.00008V9.70092ZM5.0013 14.1667H15.0013C15.2223 14.1667 15.4343 14.2545 15.5906 14.4108C15.7468 14.5671 15.8346 14.7791 15.8346 15.0001C15.8346 15.2211 15.7468 15.4331 15.5906 15.5893C15.4343 15.7456 15.2223 15.8334 15.0013 15.8334H5.0013C4.78029 15.8334 4.56833 15.7456 4.41205 15.5893C4.25577 15.4331 4.16797 15.2211 4.16797 15.0001C4.16797 14.7791 4.25577 14.5671 4.41205 14.4108C4.56833 14.2545 4.78029 14.1667 5.0013 14.1667Z" fill="#363636"/>
</svg>
