<svg width="32" height="32" viewBox="0 0 32 32" fill="none" xmlns="http://www.w3.org/2000/svg">
<path d="M0.888889 4.75H6.22222C6.22708 4.75 6.25289 4.7509 6.28944 4.79202C6.32693 4.8342 6.36111 4.90628 6.36111 5V27C6.36111 27.0937 6.32693 27.1658 6.28944 27.208C6.25289 27.2491 6.22708 27.25 6.22222 27.25H0.888889C0.884036 27.25 0.85822 27.2491 0.821668 27.208C0.784182 27.1658 0.75 27.0937 0.75 27V5C0.75 4.90628 0.784182 4.8342 0.821668 4.79202C0.85822 4.7509 0.884036 4.75 0.888889 4.75ZM4.33333 10.75C5.29983 10.75 6.08333 9.9665 6.08333 9C6.08333 8.0335 5.29983 7.25 4.33333 7.25H2.77778C1.81128 7.25 1.02778 8.0335 1.02778 9C1.02778 9.9665 1.81128 10.75 2.77778 10.75H4.33333Z" stroke="#363636" stroke-width="1.5"/>
<path d="M9.77756 4.75H15.1109C15.1157 4.75 15.1416 4.7509 15.1781 4.79202C15.2156 4.8342 15.2498 4.90628 15.2498 5V27C15.2498 27.0937 15.2156 27.1658 15.1781 27.208C15.1416 27.2491 15.1157 27.25 15.1109 27.25H9.77756C9.77271 27.25 9.74689 27.2491 9.71034 27.208C9.67285 27.1658 9.63867 27.0937 9.63867 27V5C9.63867 4.90628 9.67285 4.8342 9.71034 4.79202C9.74689 4.7509 9.77271 4.75 9.77756 4.75ZM13.222 10.75C14.1885 10.75 14.972 9.9665 14.972 9C14.972 8.0335 14.1885 7.25 13.222 7.25H11.6664C10.7 7.25 9.91645 8.0335 9.91645 9C9.91645 9.9665 10.7 10.75 11.6664 10.75H13.222Z" stroke="#363636" stroke-width="1.5"/>
<path d="M-nan -nanL21.2507 5.54592L16.488 8.24592C16.2782 8.36589 16.1191 8.57421 16.0452 8.82555C15.9713 9.07688 15.9886 9.35088 16.0933 9.58792L24.0933 27.4479C24.2 27.6839 24.3852 27.863 24.6086 27.9461C24.832 28.0293 25.0755 28.0098 25.2862 27.8919L30.0489 25.1919C30.2587 25.072 30.4178 24.8636 30.4917 24.6123C30.5656 24.361 30.5483 24.087 30.4436 23.8499L22.4436 5.98992C22.3369 5.75394 22.1517 5.57489 21.9283 5.49173C21.7049 5.40858 21.4614 5.42806 21.2507 5.54592L-nan -nanL-nan -nanZ" stroke="#363636" stroke-width="1.5"/>

</svg>
