<svg width="32" height="32" viewBox="0 0 32 32" fill="none" xmlns="http://www.w3.org/2000/svg">
<path d="M5.33203 14C4.22536 14 3.33203 14.8933 3.33203 16C3.33203 17.1067 4.22536 18 5.33203 18C6.4387 18 7.33203 17.1067 7.33203 16C7.33203 14.8933 6.4387 14 5.33203 14ZM5.33203 6C4.22536 6 3.33203 6.89333 3.33203 8C3.33203 9.10667 4.22536 10 5.33203 10C6.4387 10 7.33203 9.10667 7.33203 8C7.33203 6.89333 6.4387 6 5.33203 6ZM5.33203 22C4.22536 22 3.33203 22.9067 3.33203 24C3.33203 25.0933 4.2387 26 5.33203 26C6.42536 26 7.33203 25.0933 7.33203 24C7.33203 22.9067 6.4387 22 5.33203 22ZM10.6654 25.3333H26.6654C27.3987 25.3333 27.9987 24.7333 27.9987 24C27.9987 23.2667 27.3987 22.6667 26.6654 22.6667H10.6654C9.93203 22.6667 9.33203 23.2667 9.33203 24C9.33203 24.7333 9.93203 25.3333 10.6654 25.3333ZM10.6654 17.3333H26.6654C27.3987 17.3333 27.9987 16.7333 27.9987 16C27.9987 15.2667 27.3987 14.6667 26.6654 14.6667H10.6654C9.93203 14.6667 9.33203 15.2667 9.33203 16C9.33203 16.7333 9.93203 17.3333 10.6654 17.3333ZM9.33203 8C9.33203 8.73333 9.93203 9.33333 10.6654 9.33333H26.6654C27.3987 9.33333 27.9987 8.73333 27.9987 8C27.9987 7.26667 27.3987 6.66667 26.6654 6.66667H10.6654C9.93203 6.66667 9.33203 7.26667 9.33203 8Z" fill="#363636"/>
</svg>
